<svg width="152" height="80" viewBox="0 0 152 80" fill="none" xmlns="http://www.w3.org/2000/svg">
<rect x="4" y="4" width="72" height="72" rx="8" fill="#151212"/>
<rect x="4" y="4" width="72" height="72" rx="8" stroke="#F7F6F5" stroke-width="8"/>
<path d="M35.904 61L20.224 21.8H30.136L37.696 41.792C38.144 42.9493 38.5173 43.9573 38.816 44.816C39.152 45.6747 39.432 46.4773 39.656 47.224C39.9173 47.9707 40.1413 48.736 40.328 49.52C40.552 50.2667 40.7947 51.1253 41.056 52.096H39.32C39.6187 50.8267 39.9173 49.7067 40.216 48.736C40.5147 47.728 40.8507 46.7013 41.224 45.656C41.5973 44.5733 42.064 43.2853 42.624 41.792L49.904 21.8H59.648L43.856 61H35.904Z" fill="#F7F6F5"/>
<rect x="76" y="4" width="72" height="72" rx="8" fill="#151212"/>
<rect x="76" y="4" width="72" height="72" rx="8" stroke="#F7F6F5" stroke-width="8"/>
<path d="M97.928 61V21.8H114.84C117.304 21.8 119.488 22.36 121.392 23.48C123.333 24.6 124.864 26.1307 125.984 28.072C127.141 30.0133 127.72 32.1973 127.72 34.624C127.72 37.1627 127.141 39.44 125.984 41.456C124.864 43.4347 123.333 45.0027 121.392 46.16C119.488 47.3173 117.304 47.896 114.84 47.896H107.448V61H97.928ZM107.28 39.552H113.496C114.317 39.552 115.064 39.3467 115.736 38.936C116.408 38.5253 116.949 37.9653 117.36 37.256C117.771 36.5467 117.976 35.7253 117.976 34.792C117.976 33.8213 117.771 33 117.36 32.328C116.949 31.656 116.408 31.1333 115.736 30.76C115.064 30.3867 114.317 30.2 113.496 30.2H107.28V39.552Z" fill="#F7F6F5"/>
</svg>
